<?xml version="1.0" encoding="UTF-8" standalone="no"?>
<!-- Created with Inkscape (http://www.inkscape.org/) -->

<svg
   width="359.47845"
   height="478.05936"
   viewBox="0 0 95.111996 126.48652"
   version="1.1"
   id="svg1"
   xmlns="http://www.w3.org/2000/svg"
   xmlns:svg="http://www.w3.org/2000/svg">
  <defs
     id="defs1">
    <filter
       style="color-interpolation-filters:sRGB"
       id="filter34"
       x="0"
       y="0"
       width="1"
       height="1">
      <feColorMatrix
         type="hueRotate"
         values="180"
         result="color1"
         id="feColorMatrix33" />
      <feColorMatrix
         values="-1 0 0 0 1 0 -1 0 0 1 0 0 -1 0 1 -0.21 -0.72 -0.07 1.99696 0 "
         result="color2"
         id="feColorMatrix34" />
    </filter>
  </defs>
  <g
     id="layer1"
     transform="translate(-578.85464,-314.71349)">
    <g
       id="g28"
       transform="matrix(0.4987331,0,0,0.4987331,573.10062,309.10611)"
       style="filter:url(#filter34)">
      <path
         d="M 128.96886,49.622805 91.555641,114.64363 106.81052,88.221478 157.8012,176.54011 h 44.44328 z"
         style="fill:#f2f2f2;stroke-width:4.83701;stroke-linecap:round;stroke-linejoin:round"
         id="path22" />
      <path
         d="m 55.81961,176.54026 50.99067,88.31864 50.99069,-88.31864 z"
         style="fill:#666666;stroke:none;stroke-width:4.83701;stroke-linecap:round;stroke-linejoin:round"
         id="path23" />
      <path
         d="M 44.992081,176.54011 H 55.819842 L 91.555641,114.64363 128.96886,49.622805 123.48547,40.124678 Z"
         style="fill:#ececec;stroke-width:5.2041;stroke-linecap:round;stroke-linejoin:round"
         id="path24" />
      <path
         d="M 118.21034,30.988286 34.459391,176.54011 h 10.53269 L 123.48547,40.124678 Z"
         style="fill:#e6e6e6;stroke-width:5.2041;stroke-linecap:round;stroke-linejoin:round"
         id="path25" />
      <path
         d="M 11.537279,176.54011 H 23.094712 L 112.51818,21.12894 106.81052,11.24324 59.017063,94.024224 Z"
         style="fill:#b3b3b3;stroke-width:5.44762;stroke-linecap:round;stroke-linejoin:round"
         id="path26" />
      <path
         d="M 112.51818,21.12894 23.094712,176.54011 H 34.042879 L 118.00157,30.627068 Z"
         style="fill:#cccccc;stroke-width:5.44762;stroke-linecap:round;stroke-linejoin:round"
         id="path27" />
      <path
         d="M 137.97115,186.68178 106.8103,132.70947 75.64943,186.68178 Z"
         style="fill:#666666;stroke:none;stroke-width:2.95594;stroke-linecap:round;stroke-linejoin:round"
         id="path28" />
    </g>
  </g>
</svg>
